<svg width="80" height="80" fill="none" xmlns="http://www.w3.org/2000/svg"><g clip-path="url(#a)"><path d="M80 40C80 17.909 62.091 0 40 0S0 17.909 0 40c0 18.758 12.915 34.5 30.338 38.822V52.224H22.09V40h8.248v-5.267c0-13.615 6.161-19.925 19.528-19.925 2.534 0 6.907.498 8.696.994v11.08c-.944-.1-2.584-.15-4.621-.15-6.559 0-9.093 2.486-9.093 8.945V40h13.066l-2.245 12.224H44.848v27.483C64.654 77.315 80.002 60.451 80.002 40H80z" fill="#0866FF"/><path d="M55.667 52.224L57.912 40H44.846v-4.323c0-6.46 2.535-8.944 9.093-8.944 2.037 0 3.677.05 4.62.149v-11.08c-1.788-.498-6.16-.994-8.695-.994-13.366 0-19.528 6.31-19.528 19.925V40h-8.248v12.224h8.248v26.599A40.071 40.071 0 0039.998 80c1.64 0 3.258-.1 4.847-.293V52.224H55.667z" fill="#fff"/></g><defs><clipPath id="a"><path fill="#fff" d="M0 0H80V80H0z"/></clipPath></defs></svg>