<svg width="80" height="80" fill="none" xmlns="http://www.w3.org/2000/svg"><g clip-path="url(#a)"><path d="M40 80c22.091 0 40-17.909 40-40S62.091 0 40 0 0 17.909 0 40s17.909 40 40 40z" fill="#fff"/><path d="M40 0C17.91 0 0 17.91 0 40c0 16.955 10.535 31.44 25.416 37.267-.363-3.16-.659-8.032.131-11.49.725-3.127 4.675-19.884 4.675-19.884s-1.185-2.403-1.185-5.926c0-5.564 3.226-9.712 7.243-9.712 3.424 0 5.07 2.568 5.07 5.63 0 3.424-2.173 8.56-3.325 13.333-.955 3.984 2.008 7.243 5.926 7.243 7.11 0 12.576-7.506 12.576-18.305 0-9.58-6.88-16.263-16.724-16.263-11.391 0-18.075 8.527-18.075 17.35 0 3.424 1.317 7.11 2.963 9.12.33.394.363.756.264 1.151-.297 1.251-.988 3.984-1.12 4.544-.164.724-.592.889-1.35.526-5.003-2.337-8.131-9.613-8.131-15.506 0-12.609 9.152-24.197 26.436-24.197 13.86 0 24.659 9.876 24.659 23.11 0 13.795-8.692 24.89-20.741 24.89-4.05 0-7.868-2.107-9.152-4.61l-2.502 9.515c-.89 3.49-3.326 7.835-4.972 10.502a40.178 40.178 0 0011.852 1.778c22.09 0 40-17.91 40-40C80 17.909 62.091 0 40 0z" fill="#E60019"/></g><defs><clipPath id="a"><path fill="#fff" d="M0 0H80V80H0z"/></clipPath></defs></svg>