<svg width="80" height="80" fill="none" xmlns="http://www.w3.org/2000/svg"><path d="M57.255 28.878a31.206 31.206 0 0018.253 5.862V21.595c-1.288 0-2.572-.134-3.833-.402V31.54a31.212 31.212 0 01-18.253-5.862v26.825c0 13.42-10.84 24.297-24.21 24.297a24.033 24.033 0 01-13.479-4.11C20.13 77.201 26.261 80 33.043 80c13.372 0 24.213-10.878 24.213-24.297V28.878h-.001zm4.729-13.261A18.352 18.352 0 0157.255 4.89V3.2h-3.633a18.405 18.405 0 008.362 12.417zM24.19 62.393a11.093 11.093 0 01-2.259-6.729c0-6.137 4.958-11.114 11.075-11.114 1.14 0 2.273.175 3.36.521V31.633a24.323 24.323 0 00-3.832-.222v10.46a11.05 11.05 0 00-3.361-.52c-6.117 0-11.075 4.975-11.075 11.114 0 4.34 2.478 8.097 6.092 9.928z" fill="#FF004F"/><path d="M53.422 25.678a31.213 31.213 0 0018.253 5.862V21.193a18.307 18.307 0 01-9.691-5.576A18.405 18.405 0 0153.622 3.2H44.08v52.502c-.021 6.12-4.97 11.077-11.075 11.077-3.596 0-6.792-1.72-8.816-4.386a11.118 11.118 0 01-6.092-9.928c0-6.138 4.958-11.114 11.075-11.114 1.172 0 2.302.183 3.361.52v-10.46c-13.136.273-23.7 11.044-23.7 24.291 0 6.613 2.63 12.608 6.9 16.989a24.036 24.036 0 0013.478 4.11c13.371 0 24.21-10.88 24.21-24.298V25.678z" fill="#000"/><path d="M71.675 21.193v-2.798a18.2 18.2 0 01-9.691-2.779 18.29 18.29 0 009.691 5.577zM53.622 3.2c-.087-.5-.154-1.004-.2-1.51V0H40.247v52.503c-.021 6.12-4.97 11.076-11.075 11.076-1.792 0-3.484-.427-4.983-1.186a11.046 11.046 0 008.816 4.385c6.104 0 11.054-4.955 11.075-11.076V3.2h9.542zM32.534 31.41v-2.978c-1.101-.151-2.211-.227-3.322-.226C15.84 28.207 5 39.085 5 52.503c0 8.412 4.26 15.826 10.734 20.187a24.258 24.258 0 01-6.9-16.988c0-13.247 10.564-24.018 23.7-24.29z" fill="#00F2EA"/></svg>